<svg width="20" height="20" viewBox="0 0 20 20" fill="none" xmlns="http://www.w3.org/2000/svg">
  <mask id="mask0_1_2877" style="mask-type:luminance" maskUnits="userSpaceOnUse" x="2" y="2" width="16" height="16">
    <path d="M2.5 2.5H17.5V17.5H2.5V2.5Z" fill="white"/>
  </mask>
  <g mask="url(#mask0_1_2877)">
    <path d="M11.875 3.125H5C4.3125 3.125 3.75 3.6875 3.75 4.375V12.5C3.75 12.8438 4.03125 13.125 4.375 13.125C4.71875 13.125 5 12.8438 5 12.5V5C5 4.65625 5.28125 4.375 5.625 4.375H11.875C12.2188 4.375 12.5 4.09375 12.5 3.75C12.5 3.40625 12.2188 3.125 11.875 3.125ZM14.375 5.625H7.5C6.8125 5.625 6.25 6.1875 6.25 6.875V15.625C6.25 16.3125 6.8125 16.875 7.5 16.875H14.375C15.0625 16.875 15.625 16.3125 15.625 15.625V6.875C15.625 6.1875 15.0625 5.625 14.375 5.625ZM13.75 15.625H8.125C7.78125 15.625 7.5 15.3438 7.5 15V7.5C7.5 7.15625 7.78125 6.875 8.125 6.875H13.75C14.0938 6.875 14.375 7.15625 14.375 7.5V15C14.375 15.3438 14.0938 15.625 13.75 15.625Z" fill="#E2136E"/>
  </g>
</svg>
