<svg xmlns="http://www.w3.org/2000/svg" xmlns:xlink="http://www.w3.org/1999/xlink" width="18" height="18" viewBox="0 0 18 18">
  <defs>
    <clipPath id="clip-path">
      <rect id="Rectangle_6208" data-name="Rectangle 6208" width="17.024" height="17.025" fill="none"/>
    </clipPath>
  </defs>
  <g id="Group_33715" data-name="Group 33715" transform="translate(-156 -416)">
    <rect id="Rectangle_6196" data-name="Rectangle 6196" width="18" height="18" transform="translate(156 416)" fill="#fff" opacity="0"/>
    <g id="Group_34508" data-name="Group 34508" transform="translate(156.75 416.75)">
      <g id="Group_34507" data-name="Group 34507" transform="translate(0 0)" clip-path="url(#clip-path)">
        <path id="Path_22912" data-name="Path 22912" d="M9.533,17.735l.042-.011a.653.653,0,0,1,.064-.015h.026a7.42,7.42,0,0,0,1.7-.32,8.014,8.014,0,0,0,5.683-7.274,7.732,7.732,0,0,0-.532-3.3c-.1-.251-.212-.5-.326-.732l0-.01c-.052-.109-.1-.217-.152-.326l-.016-.034-.178.1-.278.156-.062.035-.225.129-.151.086.016.03a6.939,6.939,0,0,1,.587,5.53,6.83,6.83,0,0,1-3.618,4.23,6.757,6.757,0,0,1-3.035.718,7.4,7.4,0,0,1-.885-.054,6.842,6.842,0,0,1-2.717-.92l-.231-.137.6-.935L3.408,15l.715,2.343.566-.881.212.128a7.864,7.864,0,0,0,2.749,1.018c.2.033.395.059.614.088h.013c.092.016.178.027.265.04h.991Z" transform="translate(-0.516 -1.191)" fill="#dc146f" stroke="#e2136e" stroke-width="0.2"/>
        <path id="Path_22913" data-name="Path 22913" d="M12.651.113l-.624.954L11.815.955A7.853,7.853,0,0,0,8.063,0,8.652,8.652,0,0,0,6.93.075,7.76,7.76,0,0,0,2.955,1.811,7.924,7.924,0,0,0,.125,6.649c-.035.192-.061.388-.086.577l-.012.083C.018,7.37.009,7.431,0,7.491V8.577a.123.123,0,0,0,.008.035l0,.018c0,.018.008.038.011.045V8.7a7.79,7.79,0,0,0,.484,2.158c.056.148.121.3.185.442l.022.05.038.085.055.127h0l.014.033.907-.447-.014-.03A7.077,7.077,0,0,1,4.546,1.933a6.962,6.962,0,0,1,3.448-.924c.11,0,.22,0,.33.008a7.032,7.032,0,0,1,2.894.763l.256.13-.556.85,2.432-.3Z" transform="translate(0.48 0.48)" fill="#dc146f" stroke="#e2136e" stroke-width="0.2"/>
        <path id="Path_22914" data-name="Path 22914" d="M12.719,8.817,12,9.475a1.661,1.661,0,0,1,.854,1.313,2.255,2.255,0,0,1-2.231,2.236A1.318,1.318,0,0,1,9.5,11.648V9.673h1.183v-.92H9.5V7.048c0-1.313-.854-2.036-1.379-2.036l-.459.723a1.24,1.24,0,0,1,.854,1.313V8.756H6.939v.92H8.516v1.9a2.314,2.314,0,0,0,2.1,2.364,3.207,3.207,0,0,0,3.153-3.214,1.91,1.91,0,0,0-1.051-1.911" transform="translate(-1.548 -0.985)" fill="#dc146f"/>
      </g>
    </g>
  </g>
</svg>
