<svg width="20" height="20" viewBox="0 0 20 20" fill="none" xmlns="http://www.w3.org/2000/svg">
<path fill="#FFAB00" d="M9.99998 17.9173C8.4231 17.9198 6.88177 17.4489 5.57549 16.5654C4.30312 15.7063 3.30719 14.4966 2.70839 13.0827C2.1951 11.8698 1.99298 10.5477 2.1204 9.23675C2.24782 7.92577 2.70075 6.66742 3.43803 5.57604C4.29691 4.3039 5.50612 3.30809 6.91922 2.70919C8.13196 2.19579 9.45375 1.99363 10.7645 2.12108C12.0752 2.24853 13.3333 2.70154 14.4245 3.43896C15.6968 4.29808 16.6927 5.50782 17.2916 6.92161C17.8049 8.13459 18.007 9.45664 17.8796 10.7676C17.7521 12.0786 17.2992 13.3369 16.5619 14.4283C15.703 15.7009 14.4935 16.697 13.08 17.296C12.1055 17.7082 11.058 17.9195 9.99998 17.9173ZM4.97801 7.93633C4.83904 7.93455 4.70352 7.97973 4.59341 8.06456C4.49397 8.14368 4.42012 8.25043 4.38112 8.37139C4.34212 8.49235 4.33972 8.62214 4.37421 8.74447C4.41444 8.87572 4.49817 8.98934 4.61161 9.06661L7.3513 11.0565L6.30433 14.2763C6.2728 14.3687 6.26411 14.4674 6.27899 14.5639C6.29388 14.6604 6.3319 14.7518 6.3898 14.8304C6.44862 14.9118 6.52576 14.9782 6.61498 15.0242C6.70419 15.0703 6.80299 15.0947 6.90339 15.0956C7.0362 15.0947 7.1652 15.0511 7.27137 14.9713L9.38035 13.4381L10.0324 12.9379C10.3387 13.1524 12.4896 14.7821 12.7341 14.9673H12.7389C12.845 15.0443 12.9726 15.0861 13.1037 15.0869C13.2048 15.0864 13.3044 15.0622 13.3945 15.0161C13.4845 14.97 13.5625 14.9034 13.622 14.8217C13.6794 14.7438 13.7171 14.6531 13.7318 14.5574C13.7465 14.4618 13.7379 14.364 13.7067 14.2724L12.6629 11.0541L15.4026 9.06424C15.5128 8.98577 15.5932 8.87219 15.6305 8.74209C15.6636 8.61934 15.6601 8.48959 15.6205 8.36879C15.5808 8.24799 15.5067 8.14142 15.4073 8.06218C15.2972 7.97746 15.1617 7.9323 15.0227 7.93396H11.6413L10.5975 4.71804C10.557 4.58626 10.4734 4.47195 10.36 4.39352C10.2546 4.32263 10.1302 4.28512 10.0031 4.28588C9.87559 4.28519 9.75074 4.32268 9.64466 4.39352C9.53001 4.47202 9.44436 4.58605 9.40092 4.71804L8.3587 7.93633H4.97801Z"/>
</svg>
