<svg xmlns="http://www.w3.org/2000/svg" width="16" height="16" viewBox="0 0 16 16">
  <g id="Group_9885" data-name="Group 9885" transform="translate(-263 -303)">
    <path id="Show" d="M8,34C2.766,34,.171,29.437.063,29.243a.5.5,0,0,1,0-.486C.171,28.563,2.766,24,8,24s7.829,4.563,7.937,4.757a.5.5,0,0,1,0,.486C15.829,29.437,13.234,34,8,34ZM1.088,29c.595.9,2.93,4,6.912,4a8.6,8.6,0,0,0,6.912-4c-.595-.9-2.93-4-6.912-4A8.6,8.6,0,0,0,1.088,29ZM8,32a3,3,0,1,1,3-3A3,3,0,0,1,8,32Zm0-5a2,2,0,1,0,2,2A2,2,0,0,0,8,27Z" transform="translate(263 282)" fill="#e2136e"/>
    <rect id="Rectangle_5983" data-name="Rectangle 5983" width="16" height="16" transform="translate(263 303)" fill="none"/>
  </g>
</svg>
