<svg xmlns="http://www.w3.org/2000/svg" width="41.352" height="41.352" viewBox="0 0 41.352 41.352">
  <g id="success" transform="translate(0.375 0.375)">
    <path id="Path_4233" data-name="Path 4233" d="M20.3,0A20.3,20.3,0,1,0,40.6,20.3,20.324,20.324,0,0,0,20.3,0Zm0,39.04A18.739,18.739,0,1,1,39.04,20.3,18.761,18.761,0,0,1,20.3,39.04Z" fill="#01846c" stroke="#01846c" stroke-width="0.95"/>
    <path id="Path_4234" data-name="Path 4234" d="M32.23,15.266,20.386,28.972,13.251,23.1a.756.756,0,0,0-1.083.124.809.809,0,0,0,.12,1.115L20,30.68a.756.756,0,0,0,1.058-.093l12.33-14.268a.808.808,0,0,0-.064-1.118A.755.755,0,0,0,32.23,15.266Z" transform="translate(-2.488 -3.399)" fill="#01846c" stroke="#01846c" stroke-width="0.95"/>
  </g>
</svg>
